<svg xmlns="http://www.w3.org/2000/svg" width="215.078" height="235.467"><g fill="none" stroke="#00312a" stroke-linecap="round" stroke-linejoin="round" stroke-miterlimit="10" stroke-width="5"><path data-name="Path 251" d="M191.904 80.672c2.618-10.082-5.549-17.805-18.599-19.497 8.553-11.932 10.79-25.651 4.758-30.535s-18.44-.512-28.332 10.335c-4.243-11.2-14.036-16.912-22.811-12.926a6.535 6.535 0 00-3.51 1.595c-2.939 18.697 2.61 36.501 16.677 47.892l.67.542c13.399 10.85 32.51 11.906 50.187 5.144a3.167 3.167 0 00.96-2.55z"/><path data-name="Path 252" d="M156.87 85.58c4.658 9.317 5.135 19.687 3.06 29.098A51.137 51.137 0 01150.8 132.8c-15.733 19.429-95.029 87.216-113.785 72.027S68.074 97.977 83.807 78.55C95.2 64.48 113.002 58.934 128.063 62.252"/><path data-name="Line 13" d="M79.615 83.726l26.944 21.819"/><path data-name="Line 14" d="M104.455 148.453l13.8 11.175"/><path data-name="Line 15" d="M49.12 148.256l20.373 16.497"/></g></svg>