<svg xmlns="http://www.w3.org/2000/svg" width="215.078" height="235.467" viewBox="0 0 215.078 235.467">
  <g id="vegetable-food-carrot-svgrepo-com" transform="translate(137.907 -5.738) rotate(39)">
    <path id="Path_251" data-name="Path 251" d="M96.343,33.172c-4.31-9.483-15.517-10.345-26.724-3.448C68.757,15.069,61.861,3,54.1,3S39.448,14.207,38.586,28.862c-10.345-6.034-21.551-4.31-25.862,4.31A6.535,6.535,0,0,0,11,36.62C20.483,53,36,63.344,54.1,63.344h.862c17.241,0,32.758-11.207,42.24-27.586A3.167,3.167,0,0,0,96.343,33.172Z" transform="translate(0 0)" fill="none" stroke="#00312a" stroke-linecap="round" stroke-linejoin="round" stroke-miterlimit="10" stroke-width="5"/>
    <path id="Path_252" data-name="Path 252" d="M72.206,9.5c9.483,4.31,16.379,12.069,20.689,20.689a51.137,51.137,0,0,1,4.31,19.827c0,25-18.965,127.583-43.1,127.583S11,75.016,11,50.016C11,31.913,21.345,16.4,35.137,9.5" transform="translate(0 49.533)" fill="none" stroke="#00312a" stroke-linecap="round" stroke-linejoin="round" stroke-miterlimit="10" stroke-width="5"/>
    <line id="Line_13" data-name="Line 13" x2="34.67" transform="translate(11 106.211)" fill="none" stroke="#00312a" stroke-linecap="round" stroke-linejoin="round" stroke-miterlimit="10" stroke-width="5"/>
    <line id="Line_14" data-name="Line 14" x2="17.758" transform="translate(71.038 140.881)" fill="none" stroke="#00312a" stroke-linecap="round" stroke-linejoin="round" stroke-miterlimit="10" stroke-width="5"/>
    <line id="Line_15" data-name="Line 15" x2="26.214" transform="translate(27.912 175.551)" fill="none" stroke="#00312a" stroke-linecap="round" stroke-linejoin="round" stroke-miterlimit="10" stroke-width="5"/>
  </g>
</svg>
