<svg xmlns="http://www.w3.org/2000/svg" width="195.973" height="194.45"><g fill="#00312a"><path data-name="Path 202" d="M104.184 0a4.453 4.453 0 00-3.672 1.933C98.084 5.47 41.039 89.038 41.039 131.304a63.146 63.146 0 10126.292 0c0-42.266-57.046-125.834-59.474-129.371A4.452 4.452 0 00104.186 0zm0 185.542a54.3 54.3 0 01-54.238-54.238c0-33.618 41.5-99.413 54.238-118.821 12.742 19.408 54.237 85.2 54.237 118.821a54.3 54.3 0 01-54.237 54.238z"/><path data-name="Path 203" d="M99.73 169.209a4.454 4.454 0 004.454 4.454 42.408 42.408 0 0042.361-42.358 4.454 4.454 0 00-8.908 0 33.489 33.489 0 01-33.453 33.45 4.454 4.454 0 00-4.454 4.454z"/><path data-name="Path 204" d="M191.519 18.04h-8.655V9.384a4.454 4.454 0 10-8.908 0v8.656H165.3a4.454 4.454 0 000 8.908h8.656v8.656a4.454 4.454 0 108.908 0v-8.657h8.655a4.454 4.454 0 000-8.908z"/><path data-name="Path 205" d="M30.674 152.16h-8.656v-8.656a4.454 4.454 0 00-8.908 0v8.656H4.454a4.454 4.454 0 100 8.908h8.656v8.656a4.454 4.454 0 108.908 0v-8.656h8.656a4.454 4.454 0 000-8.908z"/></g></svg>