<svg xmlns="http://www.w3.org/2000/svg" width="195.973" height="194.45" viewBox="0 0 195.973 194.45">
  <g id="clean-svgrepo-com" transform="translate(0 -1.282)">
    <path id="Path_202" data-name="Path 202" d="M132.245,1.282a4.453,4.453,0,0,0-3.672,1.933C126.145,6.752,69.1,90.32,69.1,132.586a63.146,63.146,0,1,0,126.292,0c0-42.266-57.046-125.834-59.474-129.371a4.452,4.452,0,0,0-3.671-1.933Zm0,185.542a54.3,54.3,0,0,1-54.238-54.238c0-33.618,41.5-99.413,54.238-118.821,12.742,19.408,54.237,85.2,54.237,118.821A54.3,54.3,0,0,1,132.245,186.824Z" transform="translate(-28.061 0)" fill="#00312a"/>
    <path id="Path_203" data-name="Path 203" d="M167.927,257.234a4.454,4.454,0,0,0,4.454,4.454,42.408,42.408,0,0,0,42.361-42.358,4.454,4.454,0,0,0-8.908,0,33.489,33.489,0,0,1-33.453,33.45A4.454,4.454,0,0,0,167.927,257.234Z" transform="translate(-68.197 -86.743)" fill="#00312a"/>
    <path id="Path_204" data-name="Path 204" d="M301.508,22.693h-8.655V14.037a4.454,4.454,0,1,0-8.908,0v8.656h-8.656a4.454,4.454,0,0,0,0,8.908h8.656v8.656a4.454,4.454,0,1,0,8.908,0V31.6h8.655a4.454,4.454,0,0,0,0-8.908Z" transform="translate(-109.989 -3.371)" fill="#00312a"/>
    <path id="Path_205" data-name="Path 205" d="M30.674,248.527H22.018v-8.656a4.454,4.454,0,0,0-8.908,0v8.656H4.454a4.454,4.454,0,1,0,0,8.908H13.11v8.656a4.454,4.454,0,1,0,8.908,0v-8.656h8.656a4.454,4.454,0,0,0,0-8.908Z" transform="translate(0 -95.085)" fill="#00312a"/>
  </g>
</svg>
