<svg xmlns="http://www.w3.org/2000/svg" width="194.342" height="216.69"><g data-name="Group 37"><path data-name="Path 206" d="M192.508 37.045a3.448 3.448 0 00-1.195-4.09l-36.242-30.41a3.448 3.448 0 00-4.238-.47 3.6 3.6 0 00-2.183 3.83 49.78 49.78 0 01-11.633 36.555L45.794 151.176a152.7 152.7 0 00-25.586 43.372 3.787 3.787 0 00.944 4.394 4.746 4.746 0 004.793.42 163.573 163.573 0 0037.968-32.982l91.224-108.716a49.78 49.78 0 0133.98-17.805 3.6 3.6 0 003.39-2.814zm-43.412 15.55L57.873 161.312a140.827 140.827 0 01-25.067 23.742 145.429 145.429 0 0119.028-28.81l91.223-108.715a58.354 58.354 0 0013.592-33.37l22.95 19.257a58.354 58.354 0 00-30.503 19.18z" fill="#00312a"/></g></svg>