<svg xmlns="http://www.w3.org/2000/svg" width="194.342" height="216.69" viewBox="0 0 194.342 216.69">
  <g id="nail-svgrepo-com" transform="translate(1.717 -126.135) rotate(40)">
    <g id="Group_37" data-name="Group 37" transform="translate(196.232)">
      <path id="Path_206" data-name="Path 206" d="M251.044,2.365A3.448,3.448,0,0,0,247.5,0H200.19a3.448,3.448,0,0,0-3.548,2.365,3.6,3.6,0,0,0,.789,4.337,49.78,49.78,0,0,1,14.586,35.48V184.1a152.7,152.7,0,0,0,8.279,49.672,3.787,3.787,0,0,0,3.548,2.759,4.746,4.746,0,0,0,3.942-2.759A163.573,163.573,0,0,0,235.67,184.1V42.182A49.78,49.78,0,0,1,250.256,6.7,3.6,3.6,0,0,0,251.044,2.365ZM227.785,42.182V184.1a140.827,140.827,0,0,1-3.942,34.3,145.429,145.429,0,0,1-3.942-34.3V42.182a58.354,58.354,0,0,0-11.038-34.3h29.96A58.354,58.354,0,0,0,227.785,42.182Z" transform="translate(-196.232)" fill="#00312a"/>
    </g>
  </g>
</svg>
