<svg xmlns="http://www.w3.org/2000/svg" width="189.649" height="196.188" viewBox="0 0 189.649 196.188">
  <g id="newspaper-svgrepo-com" transform="translate(-1)">
    <path id="Path_210" data-name="Path 210" d="M62.777,16H17V61.777H62.777Zm-6.54,39.238H23.54V22.54h32.7Z" transform="translate(36.317 36.317)" fill="#00312a"/>
    <path id="Path_211" data-name="Path 211" d="M90.587,16H38.27a3.27,3.27,0,1,0,0,6.54H90.587a3.27,3.27,0,0,0,0-6.54Z" transform="translate(77.173 36.317)" fill="#00312a"/>
    <path id="Path_212" data-name="Path 212" d="M90.587,22H38.27a3.27,3.27,0,1,0,0,6.54H90.587a3.27,3.27,0,0,0,0-6.54Z" transform="translate(77.173 49.936)" fill="#00312a"/>
    <path id="Path_213" data-name="Path 213" d="M90.587,28H38.27a3.27,3.27,0,1,0,0,6.54H90.587a3.27,3.27,0,0,0,0-6.54Z" transform="translate(77.173 63.554)" fill="#00312a"/>
    <path id="Path_214" data-name="Path 214" d="M129.173,34H21.27a3.27,3.27,0,0,0,0,6.54h107.9a3.27,3.27,0,1,0,0-6.54Z" transform="translate(38.587 77.173)" fill="#00312a"/>
    <path id="Path_215" data-name="Path 215" d="M70.317,40H21.27a3.27,3.27,0,1,0,0,6.54H70.317a3.27,3.27,0,1,0,0-6.54Z" transform="translate(38.587 90.792)" fill="#00312a"/>
    <path id="Path_216" data-name="Path 216" d="M70.317,46H21.27a3.27,3.27,0,1,0,0,6.54H70.317a3.27,3.27,0,1,0,0-6.54Z" transform="translate(38.587 104.411)" fill="#00312a"/>
    <path id="Path_217" data-name="Path 217" d="M70.317,52H21.27a3.27,3.27,0,1,0,0,6.54H70.317a3.27,3.27,0,1,0,0-6.54Z" transform="translate(38.587 118.03)" fill="#00312a"/>
    <path id="Path_218" data-name="Path 218" d="M39,85.777H84.777V40H39ZM45.54,46.54h32.7v32.7H45.54Z" transform="translate(86.252 90.792)" fill="#00312a"/>
    <path id="Path_219" data-name="Path 219" d="M190.649,42.507c0-.056-.029-.1-.033-.157V0H33.7V98.094H1v78.475a19.639,19.639,0,0,0,19.619,19.619H171.03A19.61,19.61,0,0,0,190.616,176.6V42.664C190.619,42.609,190.649,42.563,190.649,42.507ZM184.076,6.54v32.7H40.238V6.54ZM7.54,176.569V104.634H33.7v71.936a13.079,13.079,0,1,1-26.158,0Zm163.49,13.079H35.232c.052-.059.088-.128.137-.186a19.489,19.489,0,0,0,1.818-2.436c.088-.137.17-.275.255-.419a19.231,19.231,0,0,0,1.383-2.773c.052-.134.1-.268.147-.4a19.421,19.421,0,0,0,.893-3.1c.02-.1.026-.2.046-.294a19.521,19.521,0,0,0,.327-3.466V45.777H184.076V176.6A13.062,13.062,0,0,1,171.03,189.649Z" fill="#00312a"/>
    <path id="Path_220" data-name="Path 220" d="M101.475,4H23V23.619h78.475Zm-6.54,13.079H29.54V10.54h65.4Z" transform="translate(49.936 9.079)" fill="#00312a"/>
  </g>
</svg>
