<svg xmlns="http://www.w3.org/2000/svg" width="189.649" height="196.188"><g fill="#00312a"><path data-name="Path 210" d="M98.094 52.317H52.317v45.777h45.777zm-6.54 39.238H58.857V58.857h32.7z"/><path data-name="Path 211" d="M166.76 52.317h-52.317a3.27 3.27 0 100 6.54h52.317a3.27 3.27 0 000-6.54z"/><path data-name="Path 212" d="M166.76 71.936h-52.317a3.27 3.27 0 100 6.54h52.317a3.27 3.27 0 000-6.54z"/><path data-name="Path 213" d="M166.76 91.554h-52.317a3.27 3.27 0 100 6.54h52.317a3.27 3.27 0 000-6.54z"/><path data-name="Path 214" d="M166.76 111.173H58.857a3.27 3.27 0 000 6.54h107.9a3.27 3.27 0 100-6.54z"/><path data-name="Path 215" d="M107.904 130.792H58.857a3.27 3.27 0 100 6.54h49.047a3.27 3.27 0 100-6.54z"/><path data-name="Path 216" d="M107.904 150.411H58.857a3.27 3.27 0 100 6.54h49.047a3.27 3.27 0 100-6.54z"/><path data-name="Path 217" d="M107.904 170.03H58.857a3.27 3.27 0 100 6.54h49.047a3.27 3.27 0 100-6.54z"/><path data-name="Path 218" d="M124.252 176.569h45.777v-45.777h-45.777zm6.54-39.237h32.7v32.7h-32.7z"/><path data-name="Path 219" d="M189.649 42.507c0-.056-.029-.1-.033-.157V0H32.7v98.094H0v78.475a19.639 19.639 0 0019.619 19.619H170.03a19.61 19.61 0 0019.586-19.588V42.664c.003-.055.033-.101.033-.157zM183.076 6.54v32.7H39.238V6.54zM6.54 176.569v-71.935H32.7v71.936a13.079 13.079 0 11-26.158 0zm163.49 13.079H34.232c.052-.059.088-.128.137-.186a19.489 19.489 0 001.818-2.436c.088-.137.17-.275.255-.419a19.231 19.231 0 001.383-2.773c.052-.134.1-.268.147-.4a19.421 19.421 0 00.893-3.1c.02-.1.026-.2.046-.294a19.521 19.521 0 00.327-3.466V45.777h143.838V176.6a13.062 13.062 0 01-13.046 13.049z"/><path data-name="Path 220" d="M150.411 13.079H71.936v19.619h78.475zm-6.54 13.079H78.476v-6.539h65.4z"/></g></svg>