<svg xmlns="http://www.w3.org/2000/svg" width="193.236" height="207.024" viewBox="0 0 193.236 207.024">
  <g id="notes-svgrepo-com" transform="translate(-17.05)">
    <g id="Group_61" data-name="Group 61" transform="translate(17.05)">
      <g id="Group_60" data-name="Group 60" transform="translate(0)">
        <path id="Path_227" data-name="Path 227" d="M174.1,160.5h69.008a3.45,3.45,0,1,0,0-6.9H174.1a3.45,3.45,0,0,0,0,6.9Z" transform="translate(-108.543 -91.493)" fill="#00312a"/>
        <path id="Path_228" data-name="Path 228" d="M378.983,335.477l-6.9-6.9a12.964,12.964,0,0,0-18.68,0l-45.207,45.207a3.442,3.442,0,0,0-1.011,2.439v20.7a3.449,3.449,0,0,0,3.45,3.45h20.7a3.436,3.436,0,0,0,2.439-1.011l45.207-45.207C384.48,348.661,384.48,340.977,378.983,335.477ZM348.941,342.8l5.472,5.472-29.977,29.977-5.472-5.472Zm-34.856,50.679V377.651l15.824,15.824Zm20.7-4.879-5.472-5.472,29.977-29.977,5.469,5.472ZM374.1,349.279l-4.461,4.462-15.824-15.824,4.462-4.462c2.733-2.729,6.183-2.736,8.923,0l6.9,6.9C376.9,343.151,376.9,346.487,374.1,349.279Z" transform="translate(-189.87 -193.352)" fill="#00312a"/>
        <path id="Path_229" data-name="Path 229" d="M310.634,41.035h6.9a3.45,3.45,0,1,0,0-6.9h-6.9a3.45,3.45,0,0,0,0,6.9Z" transform="translate(-189.87 -20.332)" fill="#00312a"/>
        <path id="Path_230" data-name="Path 230" d="M351.668,41.4a10.326,10.326,0,0,0,3.45-20.068V3.45a3.45,3.45,0,0,0-6.9,0V21.337a10.326,10.326,0,0,0,3.45,20.068Zm0-13.8a3.45,3.45,0,1,1-3.45,3.45A3.454,3.454,0,0,1,351.668,27.6Z" transform="translate(-210.202)" fill="#00312a"/>
        <path id="Path_231" data-name="Path 231" d="M174.1,211.7h62.107a3.45,3.45,0,0,0,0-6.9H174.1a3.45,3.45,0,0,0,0,6.9Z" transform="translate(-108.543 -121.991)" fill="#00312a"/>
        <path id="Path_232" data-name="Path 232" d="M395.968,41.034h6.9c5.031,0,10.351,5.32,10.351,10.351v89.424a3.45,3.45,0,0,0,6.9,0V51.385c0-8.868-8.384-17.252-17.252-17.252h-6.9a3.45,3.45,0,1,0,0,6.9Z" transform="translate(-240.699 -20.332)" fill="#00312a"/>
        <path id="Path_233" data-name="Path 233" d="M266.335,41.4a10.326,10.326,0,0,0,3.45-20.068V3.45a3.45,3.45,0,1,0-6.9,0V21.337a10.326,10.326,0,0,0,3.45,20.068Zm0-13.8a3.45,3.45,0,1,1-3.45,3.45A3.454,3.454,0,0,1,266.335,27.6Z" transform="translate(-159.373)" fill="#00312a"/>
        <path id="Path_234" data-name="Path 234" d="M253.461,259.45a3.449,3.449,0,0,0-3.45-3.45H174.1a3.45,3.45,0,0,0,0,6.9H250.01A3.449,3.449,0,0,0,253.461,259.45Z" transform="translate(-108.543 -152.488)" fill="#00312a"/>
        <path id="Path_235" data-name="Path 235" d="M174.1,307.2a3.45,3.45,0,0,0,0,6.9h69.008a3.45,3.45,0,1,0,0-6.9Z" transform="translate(-108.543 -182.986)" fill="#00312a"/>
        <path id="Path_236" data-name="Path 236" d="M124.013,199.753a3.45,3.45,0,0,0,0-6.9H23.951V51.386c0-5.031,5.32-10.351,10.351-10.351h6.9a3.45,3.45,0,1,0,0-6.9H34.3c-8.868,0-17.252,8.384-17.252,17.252V210.1c0,8.868,8.384,17.252,17.252,17.252h89.71a3.45,3.45,0,1,0,0-6.9H34.3c-3.871,0-7.888-3.157-9.547-6.9h99.257a3.45,3.45,0,0,0,0-6.9H23.951v-6.9H124.013Z" transform="translate(-17.05 -20.332)" fill="#00312a"/>
        <path id="Path_237" data-name="Path 237" d="M112.735,204.8h-6.9a3.45,3.45,0,0,0,0,6.9h6.9a3.45,3.45,0,0,0,0-6.9Z" transform="translate(-67.88 -121.99)" fill="#00312a"/>
        <path id="Path_238" data-name="Path 238" d="M112.735,358.4h-6.9a3.45,3.45,0,0,0,0,6.9h6.9a3.45,3.45,0,0,0,0-6.9Z" transform="translate(-67.88 -213.483)" fill="#00312a"/>
        <path id="Path_239" data-name="Path 239" d="M225.3,41.035h6.9a3.45,3.45,0,1,0,0-6.9h-6.9a3.45,3.45,0,1,0,0,6.9Z" transform="translate(-139.041 -20.332)" fill="#00312a"/>
        <path id="Path_240" data-name="Path 240" d="M222.407,358.4H174.1a3.45,3.45,0,0,0,0,6.9h48.306a3.45,3.45,0,1,0,0-6.9Z" transform="translate(-108.543 -213.483)" fill="#00312a"/>
        <path id="Path_241" data-name="Path 241" d="M112.735,153.6h-6.9a3.45,3.45,0,0,0,0,6.9h6.9a3.45,3.45,0,0,0,0-6.9Z" transform="translate(-67.88 -91.493)" fill="#00312a"/>
        <path id="Path_242" data-name="Path 242" d="M112.735,256h-6.9a3.45,3.45,0,1,0,0,6.9h6.9a3.45,3.45,0,1,0,0-6.9Z" transform="translate(-67.88 -152.488)" fill="#00312a"/>
        <path id="Path_243" data-name="Path 243" d="M139.968,41.035h6.9a3.45,3.45,0,1,0,0-6.9h-6.9a3.45,3.45,0,0,0,0,6.9Z" transform="translate(-88.212 -20.332)" fill="#00312a"/>
        <path id="Path_244" data-name="Path 244" d="M112.735,307.2h-6.9a3.45,3.45,0,1,0,0,6.9h6.9a3.45,3.45,0,1,0,0-6.9Z" transform="translate(-67.88 -182.986)" fill="#00312a"/>
        <path id="Path_245" data-name="Path 245" d="M181,41.4a10.326,10.326,0,0,0,3.45-20.068V3.45a3.45,3.45,0,1,0-6.9,0V21.337A10.326,10.326,0,0,0,181,41.4Zm0-13.8a3.45,3.45,0,1,1-3.45,3.45A3.456,3.456,0,0,1,181,27.6Z" transform="translate(-108.543)" fill="#00312a"/>
        <path id="Path_246" data-name="Path 246" d="M95.668,41.4a10.326,10.326,0,0,0,3.45-20.068V3.45a3.45,3.45,0,0,0-6.9,0V21.337A10.326,10.326,0,0,0,95.668,41.4Zm0-13.8a3.45,3.45,0,1,1-3.45,3.45A3.456,3.456,0,0,1,95.668,27.6Z" transform="translate(-57.714)" fill="#00312a"/>
      </g>
    </g>
  </g>
</svg>
