<svg xmlns="http://www.w3.org/2000/svg" width="193.236" height="207.024"><g data-name="Group 61"><g data-name="Group 60" fill="#00312a"><path data-name="Path 227" d="M65.557 69.007h69.008a3.45 3.45 0 100-6.9H65.557a3.45 3.45 0 000 6.9z"/><path data-name="Path 228" d="M189.113 142.125l-6.9-6.9a12.964 12.964 0 00-18.68 0l-45.207 45.207a3.442 3.442 0 00-1.011 2.439v20.7a3.449 3.449 0 003.45 3.45h20.7a3.436 3.436 0 002.439-1.011l45.207-45.207c5.499-5.494 5.499-13.178.002-18.678zm-30.042 7.323l5.472 5.472-29.977 29.977-5.472-5.472zm-34.856 50.679v-15.828l15.824 15.824zm20.7-4.879l-5.472-5.472 29.977-29.977 5.469 5.472zm39.315-39.321l-4.461 4.462-15.824-15.824 4.462-4.462c2.733-2.729 6.183-2.736 8.923 0l6.9 6.9c2.8 2.796 2.8 6.132 0 8.924z"/><path data-name="Path 229" d="M120.764 20.703h6.9a3.45 3.45 0 100-6.9h-6.9a3.45 3.45 0 000 6.9z"/><path data-name="Path 230" d="M141.466 41.4a10.326 10.326 0 003.45-20.068V3.45a3.45 3.45 0 00-6.9 0v17.887a10.326 10.326 0 003.45 20.068zm0-13.8a3.45 3.45 0 11-3.45 3.45 3.454 3.454 0 013.45-3.45z"/><path data-name="Path 231" d="M65.557 89.709h62.107a3.45 3.45 0 000-6.9H65.557a3.45 3.45 0 000 6.9z"/><path data-name="Path 232" d="M155.269 20.702h6.9c5.031 0 10.351 5.32 10.351 10.351v89.424a3.45 3.45 0 006.9 0V31.053c0-8.868-8.384-17.252-17.252-17.252h-6.9a3.45 3.45 0 100 6.9z"/><path data-name="Path 233" d="M106.962 41.4a10.326 10.326 0 003.45-20.068V3.45a3.45 3.45 0 10-6.9 0v17.887a10.326 10.326 0 003.45 20.068zm0-13.8a3.45 3.45 0 11-3.45 3.45 3.454 3.454 0 013.45-3.45z"/><path data-name="Path 234" d="M144.918 106.962a3.449 3.449 0 00-3.45-3.45H65.557a3.45 3.45 0 000 6.9h75.91a3.449 3.449 0 003.451-3.45z"/><path data-name="Path 235" d="M65.557 124.214a3.45 3.45 0 000 6.9h69.008a3.45 3.45 0 100-6.9z"/><path data-name="Path 236" d="M106.963 179.421a3.45 3.45 0 000-6.9H6.901V31.054c0-5.031 5.32-10.351 10.351-10.351h6.9a3.45 3.45 0 100-6.9H17.25c-8.868 0-17.252 8.384-17.252 17.252v158.713c0 8.868 8.384 17.252 17.252 17.252h89.71a3.45 3.45 0 100-6.9H17.25c-3.871 0-7.888-3.157-9.547-6.9h99.257a3.45 3.45 0 000-6.9H6.901v-6.9h100.062z"/><path data-name="Path 237" d="M44.855 82.81h-6.9a3.45 3.45 0 000 6.9h6.9a3.45 3.45 0 000-6.9z"/><path data-name="Path 238" d="M44.855 144.917h-6.9a3.45 3.45 0 000 6.9h6.9a3.45 3.45 0 000-6.9z"/><path data-name="Path 239" d="M86.259 20.703h6.9a3.45 3.45 0 100-6.9h-6.9a3.45 3.45 0 100 6.9z"/><path data-name="Path 240" d="M113.864 144.917H65.557a3.45 3.45 0 000 6.9h48.306a3.45 3.45 0 100-6.9z"/><path data-name="Path 241" d="M44.855 62.107h-6.9a3.45 3.45 0 000 6.9h6.9a3.45 3.45 0 000-6.9z"/><path data-name="Path 242" d="M44.855 103.512h-6.9a3.45 3.45 0 100 6.9h6.9a3.45 3.45 0 100-6.9z"/><path data-name="Path 243" d="M51.756 20.703h6.9a3.45 3.45 0 100-6.9h-6.9a3.45 3.45 0 000 6.9z"/><path data-name="Path 244" d="M44.855 124.214h-6.9a3.45 3.45 0 100 6.9h6.9a3.45 3.45 0 100-6.9z"/><path data-name="Path 245" d="M72.457 41.4a10.326 10.326 0 003.45-20.068V3.45a3.45 3.45 0 10-6.9 0v17.887a10.326 10.326 0 003.45 20.063zm0-13.8a3.45 3.45 0 11-3.45 3.45 3.456 3.456 0 013.45-3.45z"/><path data-name="Path 246" d="M37.954 41.4a10.326 10.326 0 003.45-20.068V3.45a3.45 3.45 0 00-6.9 0v17.887a10.326 10.326 0 003.45 20.063zm0-13.8a3.45 3.45 0 11-3.45 3.45 3.456 3.456 0 013.45-3.45z"/></g></g></svg>