<svg xmlns="http://www.w3.org/2000/svg" width="63.248" height="70.136"><g data-name="Group 67"><g data-name="Group 66"><path data-name="Path 254" d="M62.297 9.036C61.772 8.579 49.327-2.133 39.47.381c-3.357.857-5.988 3.123-7.846 6.747a12.287 12.287 0 00-7.357-6.61c-2.993-.908-6.544-.618-10.555.851l.757 2.061c3.553-1.3 6.635-1.577 9.162-.811 2.706.82 4.837 2.885 6.35 6.147h-3.017L22.903 4.7l-1.548 1.557 2.5 2.509h-4.2L15.598 4.7l-1.553 1.557 2.51 2.509h-4.656v2.2h4.656l-2.51 2.505 1.552 1.552 4.058-4.061h4.2l-2.5 2.509 1.552 1.552 4.062-4.062h3.016c-1.585 3.415-3.848 5.517-6.743 6.257-7.254 1.853-16.743-4.934-19.829-7.356a46.665 46.665 0 018.98-5.575l-.911-2A48.659 48.659 0 00.955 9.036l-.951.828.951.828c.47.409 10.492 9.036 19.659 9.036a12.785 12.785 0 003.168-.382 11.5 11.5 0 006.748-4.893V17.9h2.2v-3.447a11.654 11.654 0 005.875 4.633 12.38 12.38 0 004.038.641 19.468 19.468 0 006.139-1.1l-.7-2.082c-3.4 1.137-6.352 1.294-8.769.466-2.558-.877-4.586-2.909-6.042-6.048h3.016l4.062 4.062 1.552-1.552-2.51-2.509h4.2l4.064 4.059 1.552-1.552-2.509-2.509h4.655v-2.2h-4.66l2.509-2.509L47.655 4.7l-4.067 4.066h-4.2l2.509-2.509L40.345 4.7l-4.062 4.066h-3.016c1.588-3.415 3.848-5.517 6.743-6.256C47.263.656 56.755 7.443 59.839 9.865a45.771 45.771 0 01-9.653 5.873l.864 2.018a48.09 48.09 0 0011.247-7.064l.95-.828z" fill="#00312a"/></g></g><g data-name="Group 69"><g data-name="Group 68"><path data-name="Path 255" d="M62.297 33.875c-.525-.457-12.969-11.17-22.827-8.655a11.5 11.5 0 00-6.748 4.893v-9.291h-2.2v9.293a11.754 11.754 0 00-5.451-4.481c-4.059-1.58-9.152-.827-15.137 2.24l1 1.954c3.714-1.9 9.043-3.82 13.339-2.147 2.4.933 4.308 2.925 5.7 5.923h-3.008l-4.062-4.062-1.552 1.552 2.507 2.511h-4.2l-4.062-4.062-1.552 1.552 2.514 2.51H11.9v2.2h4.658l-2.512 2.51 1.552 1.552 4.062-4.062h4.198l-2.507 2.51 1.552 1.552 4.062-4.062h3.016c-1.585 3.415-3.848 5.517-6.743 6.257-7.255 1.853-16.744-4.934-19.83-7.356a50.114 50.114 0 015.4-3.695l-1.119-1.896a49.54 49.54 0 00-6.738 4.759L0 34.702l.951.828c.47.409 10.492 9.037 19.659 9.036a12.785 12.785 0 003.168-.382 11.5 11.5 0 006.748-4.893v3.447h2.2v-3.454a11.47 11.47 0 009.912 5.282 17.459 17.459 0 003.844-.456l-.484-2.141a11.569 11.569 0 01-7.575-.483 11.1 11.1 0 01-5.149-5.686h3.014l4.062 4.062 1.552-1.552-2.509-2.509h4.2l4.062 4.062 1.552-1.552-2.509-2.509h4.65v-2.2h-4.655l2.509-2.509-1.552-1.552-4.062 4.062h-4.2l2.509-2.509-1.552-1.552-4.062 4.062h-3.016c1.585-3.415 3.848-5.517 6.743-6.257 7.254-1.853 16.743 4.934 19.829 7.355a43.715 43.715 0 01-11.061 6.433l.756 2.061a46.6 46.6 0 0012.763-7.667l.95-.828z" fill="#00312a"/></g></g><g data-name="Group 71"><g data-name="Group 70"><path data-name="Path 256" d="M47.292 67.941A15.732 15.732 0 0032.72 53.369v-7.708h-2.2v7.708a15.732 15.732 0 00-14.572 14.572h-4.786v2.2h40.911v-2.2zm-29.138 0a13.408 13.408 0 011.468-5.11h12.731v-2.2H21.05a13.507 13.507 0 0124.043 7.306H18.156z" fill="#00312a"/></g></g><g data-name="Group 73"><g data-name="Group 72"><path data-name="Rectangle 770" fill="#00312a" d="M54.27 67.941h5.114v2.195H54.27z"/></g></g><g data-name="Group 75"><g data-name="Group 74"><path data-name="Rectangle 771" fill="#00312a" d="M5.325 67.941h3.653v2.195H5.325z"/></g></g><g data-name="Group 77"><g data-name="Group 76"><path data-name="Rectangle 772" fill="#00312a" d="M35.277 60.636h2.922v2.195h-2.922z"/></g></g></svg>