<svg id="plant-leaf-svgrepo-com" xmlns="http://www.w3.org/2000/svg" width="63.248" height="70.136" viewBox="0 0 63.248 70.136">
  <g id="Group_67" data-name="Group 67" transform="translate(0)">
    <g id="Group_66" data-name="Group 66" transform="translate(0)">
      <path id="Path_254" data-name="Path 254" d="M87.442,9.036C86.917,8.579,74.472-2.133,64.615.381c-3.357.857-5.988,3.123-7.846,6.747A12.287,12.287,0,0,0,49.412.518C46.419-.39,42.868-.1,38.857,1.369l.757,2.061c3.553-1.3,6.635-1.577,9.162-.811,2.706.82,4.837,2.885,6.35,6.147H52.109L48.048,4.7,46.5,6.257,49,8.766H44.8L40.743,4.7,39.19,6.257,41.7,8.766H37.044v2.2H41.7L39.19,13.471l1.552,1.552L44.8,10.962H49L46.5,13.471l1.552,1.552,4.062-4.062h3.016c-1.585,3.415-3.848,5.517-6.743,6.257-7.254,1.853-16.743-4.934-19.829-7.356a46.665,46.665,0,0,1,8.98-5.575l-.911-2A48.659,48.659,0,0,0,26.1,9.036l-.951.828.951.828c.47.409,10.492,9.036,19.659,9.036a12.785,12.785,0,0,0,3.168-.382,11.5,11.5,0,0,0,6.748-4.893V17.9h2.2V14.453a11.654,11.654,0,0,0,5.875,4.633,12.38,12.38,0,0,0,4.038.641,19.468,19.468,0,0,0,6.139-1.1l-.7-2.082c-3.4,1.137-6.352,1.294-8.769.466-2.558-.877-4.586-2.909-6.042-6.048h3.016l4.062,4.062,1.552-1.552-2.51-2.509h4.2L72.8,15.023l1.552-1.552-2.509-2.509h4.655v-2.2H71.838l2.509-2.509L72.8,4.7,68.733,8.766h-4.2l2.509-2.509L65.49,4.7,61.428,8.766H58.412C60,5.351,62.26,3.249,65.155,2.51,72.408.656,81.9,7.443,84.984,9.865a45.771,45.771,0,0,1-9.653,5.873l.864,2.018a48.09,48.09,0,0,0,11.247-7.064l.95-.828Z" transform="translate(-25.145 0)" fill="#00312a"/>
    </g>
  </g>
  <g id="Group_69" data-name="Group 69" transform="translate(0 20.823)">
    <g id="Group_68" data-name="Group 68" transform="translate(0)">
      <path id="Path_255" data-name="Path 255" d="M87.439,165.06c-.525-.457-12.969-11.17-22.827-8.655a11.5,11.5,0,0,0-6.748,4.893v-9.291h-2.2V161.3a11.754,11.754,0,0,0-5.451-4.481c-4.059-1.58-9.152-.827-15.137,2.24l1,1.954c3.714-1.9,9.043-3.82,13.339-2.147,2.4.933,4.308,2.925,5.7,5.923H52.107l-4.062-4.062-1.552,1.552L49,164.79H44.8l-4.062-4.062-1.552,1.552L41.7,164.79H37.042v2.2H41.7L39.188,169.5l1.552,1.552,4.062-4.062H49L46.493,169.5l1.552,1.552,4.062-4.062h3.016c-1.585,3.415-3.848,5.517-6.743,6.257-7.255,1.853-16.744-4.934-19.83-7.356a50.114,50.114,0,0,1,5.4-3.695L32.831,160.3a49.54,49.54,0,0,0-6.738,4.759l-.951.828.951.828c.47.409,10.492,9.037,19.659,9.036a12.785,12.785,0,0,0,3.168-.382,11.5,11.5,0,0,0,6.748-4.893v3.447h2.2v-3.454a11.47,11.47,0,0,0,9.912,5.282,17.459,17.459,0,0,0,3.844-.456l-.484-2.141a11.569,11.569,0,0,1-7.575-.483,11.1,11.1,0,0,1-5.149-5.686h3.014l4.062,4.062,1.552-1.552-2.509-2.509h4.2l4.062,4.062,1.552-1.552-2.509-2.509H76.49v-2.2H71.835l2.509-2.509-1.552-1.552-4.062,4.062h-4.2l2.509-2.509-1.552-1.552-4.062,4.062H58.409c1.585-3.415,3.848-5.517,6.743-6.257,7.254-1.853,16.743,4.934,19.829,7.355a43.715,43.715,0,0,1-11.061,6.433l.756,2.061a46.6,46.6,0,0,0,12.763-7.667l.95-.828Z" transform="translate(-25.142 -152.008)" fill="#00312a"/>
    </g>
  </g>
  <g id="Group_71" data-name="Group 71" transform="translate(11.169 45.661)">
    <g id="Group_70" data-name="Group 70" transform="translate(0)">
      <path id="Path_256" data-name="Path 256" d="M142.8,355.609a15.732,15.732,0,0,0-14.572-14.572v-7.708h-2.2v7.708a15.732,15.732,0,0,0-14.572,14.572h-4.786v2.2h40.911v-2.2Zm-29.138,0a13.408,13.408,0,0,1,1.468-5.11h12.731v-2.2H116.558a13.507,13.507,0,0,1,24.043,7.306H113.664Z" transform="translate(-106.677 -333.329)" fill="#00312a"/>
    </g>
  </g>
  <g id="Group_73" data-name="Group 73" transform="translate(54.27 67.941)">
    <g id="Group_72" data-name="Group 72" transform="translate(0)">
      <rect id="Rectangle_770" data-name="Rectangle 770" width="5.114" height="2.195" fill="#00312a"/>
    </g>
  </g>
  <g id="Group_75" data-name="Group 75" transform="translate(5.325 67.941)">
    <g id="Group_74" data-name="Group 74" transform="translate(0)">
      <rect id="Rectangle_771" data-name="Rectangle 771" width="3.653" height="2.195" fill="#00312a"/>
    </g>
  </g>
  <g id="Group_77" data-name="Group 77" transform="translate(35.277 60.636)">
    <g id="Group_76" data-name="Group 76">
      <rect id="Rectangle_772" data-name="Rectangle 772" width="2.922" height="2.195" fill="#00312a"/>
    </g>
  </g>
</svg>
