<svg xmlns="http://www.w3.org/2000/svg" width="226.759" height="232.896"><g transform="translate(-6.183)" fill="#00312a"><path data-name="Path 207" d="M69.197 158.208a32.267 32.267 0 1015.033 19.593 32.262 32.262 0 00-15.033-19.593zm5.361 40.353a24.807 24.807 0 01-33.9 9.085 24.819 24.819 0 01-9.084-33.9 24.807 24.807 0 0133.9-9.085 24.818 24.818 0 019.084 33.9z"/><path data-name="Path 208" d="M186.032 153.879a32.272 32.272 0 1027.969 16.138 32.263 32.263 0 00-27.969-16.138zm24 38.7a24.833 24.833 0 01-23.947 18.4 24.915 24.915 0 01-21.521-12.415 24.827 24.827 0 0121.468-37.234 24.915 24.915 0 0121.521 12.415 24.66 24.66 0 012.48 18.829z"/><path data-name="Path 209" d="M226.6 162.146a48.4 48.4 0 00-30.344-22.746 43.712 43.712 0 00-34.262 5.523c-7 4.489-15.814 3.53-21.111-1.972l69.375-99.071A31.027 31.027 0 00202.639.673a3.723 3.723 0 00-5.185.914L119.561 112.83l-49.2-70.265a3.723 3.723 0 00-6.1 4.271l55.261 78.922a17.317 17.317 0 00-16.265 11.386l-68.293-97.53a23.591 23.591 0 012.908-30.467l17.848 25.49a3.723 3.723 0 006.1-4.271L41.669 1.588a3.723 3.723 0 00-5.185-.914 31.026 31.026 0 00-7.619 43.212l69.375 99.071c-5.3 5.5-14.115 6.461-21.11 1.972a43.708 43.708 0 00-34.261-5.523 48.4 48.4 0 00-30.346 22.741A47.16 47.16 0 0091.839 213l27.723-39.59 27.738 39.603a47.159 47.159 0 0079.3-50.867zm-25.35-153a23.592 23.592 0 012.908 30.468l-67.934 97.013-2.429-3.469-9.69-13.838zM85.75 208.71a39.713 39.713 0 01-66.78-42.84 40.92 40.92 0 0125.654-19.228 36.328 36.328 0 0128.482 4.554 24.207 24.207 0 0029.456-2.064l2.681 3.829c.029.042.055.086.085.128.012.017.027.032.039.05l9.648 13.778zm138.371-12.7a39.713 39.713 0 01-70.737 12.719l-42-59.974a9.927 9.927 0 0116.3-11.328l5.562 7.943c7.275 10.39 21.667 12.95 32.762 5.827a36.336 36.336 0 0128.492-4.557 40.922 40.922 0 0125.654 19.228 39.459 39.459 0 013.966 30.139z"/><circle data-name="Ellipse 12" cx="3.723" cy="3.723" r="3.723" transform="translate(115.838 139.399)"/></g></svg>