<svg xmlns="http://www.w3.org/2000/svg" width="226.759" height="232.896" viewBox="0 0 226.759 232.896">
  <g id="scissors-svgrepo-com" transform="translate(-6.183 0)">
    <path id="Path_207" data-name="Path 207" d="M84.008,314.3a32.267,32.267,0,1,0,15.033,19.593A32.262,32.262,0,0,0,84.008,314.3Zm5.361,40.353a24.807,24.807,0,0,1-33.9,9.085,24.819,24.819,0,0,1-9.084-33.9,24.807,24.807,0,0,1,33.9-9.085,24.818,24.818,0,0,1,9.084,33.9Z" transform="translate(-14.811 -156.092)" fill="#00312a"/>
    <path id="Path_208" data-name="Path 208" d="M335.751,309.971a32.272,32.272,0,1,0,27.969,16.138A32.263,32.263,0,0,0,335.751,309.971Zm24,38.7a24.833,24.833,0,0,1-23.947,18.4,24.915,24.915,0,0,1-21.521-12.415,24.827,24.827,0,0,1,21.468-37.234,24.915,24.915,0,0,1,21.521,12.415A24.66,24.66,0,0,1,359.752,348.666Z" transform="translate(-149.719 -156.092)" fill="#00312a"/>
    <path id="Path_209" data-name="Path 209" d="M226.6,162.146A48.4,48.4,0,0,0,196.256,139.4a43.712,43.712,0,0,0-34.262,5.523c-7,4.489-15.814,3.53-21.111-1.972l69.375-99.071A31.027,31.027,0,0,0,202.639.673a3.723,3.723,0,0,0-5.185.914L119.561,112.83l-49.2-70.265a3.723,3.723,0,0,0-6.1,4.271l55.261,78.922a17.317,17.317,0,0,0-16.265,11.386L34.964,39.614A23.591,23.591,0,0,1,37.872,9.147L55.72,34.637a3.723,3.723,0,0,0,6.1-4.271L41.669,1.588A3.723,3.723,0,0,0,36.484.674a31.026,31.026,0,0,0-7.619,43.212l69.375,99.071c-5.3,5.5-14.115,6.461-21.11,1.972a43.708,43.708,0,0,0-34.261-5.523,48.4,48.4,0,0,0-30.346,22.741A47.16,47.16,0,0,0,91.839,213l27.723-39.59L147.3,213.013A47.159,47.159,0,0,0,226.6,162.146Zm-25.35-153a23.592,23.592,0,0,1,2.908,30.468l-67.934,97.013-2.429-3.469-9.69-13.838ZM85.75,208.71a39.713,39.713,0,0,1-66.78-42.84,40.92,40.92,0,0,1,25.654-19.228,36.328,36.328,0,0,1,28.482,4.554,24.207,24.207,0,0,0,29.456-2.064l2.681,3.829c.029.042.055.086.085.128.012.017.027.032.039.05l9.648,13.778Zm138.371-12.7a39.713,39.713,0,0,1-70.737,12.719l-42-59.974a9.927,9.927,0,0,1,16.3-11.328l5.562,7.943c7.275,10.39,21.667,12.95,32.762,5.827A36.336,36.336,0,0,1,194.5,146.64a40.922,40.922,0,0,1,25.654,19.228A39.459,39.459,0,0,1,224.12,196.007Z" transform="translate(0 0)" fill="#00312a"/>
    <circle id="Ellipse_12" data-name="Ellipse 12" cx="3.723" cy="3.723" r="3.723" transform="translate(115.838 139.399)" fill="#00312a"/>
  </g>
</svg>
