<svg xmlns="http://www.w3.org/2000/svg" width="166.116" height="202.791"><g fill="#00312a"><path data-name="Path 247" d="M165.02 187.9l-1.59-3.181V18.076l1.59-3.18A10.293 10.293 0 00155.814 0H10.303a10.293 10.293 0 00-9.206 14.9l1.59 3.18v166.634l-1.59 3.181a10.292 10.292 0 009.206 14.9h145.511a10.293 10.293 0 009.206-14.9zm-6.039 6.56a3.652 3.652 0 01-3.167 1.766H10.302a3.723 3.723 0 01-3.33-5.388l1.937-3.874a3.284 3.284 0 00.347-1.469V17.3a3.282 3.282 0 00-.347-1.469l-1.936-3.873a3.723 3.723 0 013.33-5.388h145.511a3.723 3.723 0 013.33 5.388l-1.937 3.874a3.275 3.275 0 00-.347 1.469V185.49a3.283 3.283 0 00.347 1.469l1.937 3.874a3.652 3.652 0 01-.163 3.622z"/><path data-name="Path 248" d="M146.129 14.016H19.987a3.285 3.285 0 000 6.57h126.142a3.285 3.285 0 100-6.57z"/><path data-name="Path 249" d="M146.129 182.205H19.987a3.285 3.285 0 000 6.57h126.142a3.285 3.285 0 100-6.57z"/><path data-name="Path 250" d="M66.299 93.77c-7.875-7.875-19.188-11.3-29.526-8.932a3.285 3.285 0 00-2.469 2.469c-2.366 10.337 1.057 21.65 8.932 29.526a32.724 32.724 0 0022.944 9.669 29.709 29.709 0 004.74-.383l8.852 8.852v19.2h-7.227a3.285 3.285 0 000 6.57h21.024a3.285 3.285 0 000-6.57h-7.227v-5.186l8.852-8.852a29.711 29.711 0 004.74.383 32.725 32.725 0 0022.943-9.669c7.875-7.875 11.3-19.188 8.932-29.526a3.285 3.285 0 00-2.469-2.469c-10.337-2.365-21.651 1.057-29.526 8.932a32.308 32.308 0 00-9.283 27.719l-4.19 4.191v-33.415l8.868-8.868a23.975 23.975 0 003.447.257 26.313 26.313 0 0018.451-7.771 25.848 25.848 0 007.177-23.756 3.285 3.285 0 00-2.469-2.469 26.312 26.312 0 00-31.271 29.113l-4.2 4.2v-.881a24.148 24.148 0 00-7.12-17.189l-.15-.15a26.312 26.312 0 00-31.271-29.114 3.285 3.285 0 00-2.469 2.469 25.85 25.85 0 007.177 23.756 26.315 26.315 0 0018.45 7.772 23.977 23.977 0 003.447-.257l.169.17a17.623 17.623 0 015.2 12.543v29.574l-4.191-4.191a32.309 32.309 0 00-9.287-27.717zm38.162 18.662a25.766 25.766 0 0121.321-7.549 25.769 25.769 0 01-7.549 21.321 26.231 26.231 0 01-16.8 7.7l15.5-15.5a3.285 3.285 0 10-4.645-4.645l-15.527 15.518a26.23 26.23 0 017.7-16.845zm-1.755-36.939a19.5 19.5 0 0115.522-5.764 19.5 19.5 0 01-5.767 15.519 19.966 19.966 0 01-10.667 5.574l8.121-8.121a3.285 3.285 0 10-4.645-4.645l-8.148 8.148a19.964 19.964 0 015.585-10.711zm-45.551-4.258a19.5 19.5 0 01-5.764-15.522 19.5 19.5 0 0115.522 5.764 19.966 19.966 0 015.582 10.713l-8.148-8.148a3.285 3.285 0 10-4.645 4.645l8.121 8.121a19.969 19.969 0 01-10.668-5.573zm-9.274 40.953a25.77 25.77 0 01-7.549-21.321 25.765 25.765 0 0121.321 7.549 26.23 26.23 0 017.7 16.846L53.835 99.748a3.285 3.285 0 00-4.645 4.645l15.5 15.5a26.232 26.232 0 01-16.808-7.705z"/></g></svg>