<svg xmlns="http://www.w3.org/2000/svg" width="166.116" height="202.791" viewBox="0 0 166.116 202.791">
  <g id="seeds-svgrepo-com" transform="translate(-41.867)">
    <path id="Path_247" data-name="Path 247" d="M206.887,187.9l-1.59-3.181V18.076l1.59-3.18A10.293,10.293,0,0,0,197.681,0H52.17a10.293,10.293,0,0,0-9.206,14.9l1.59,3.18V184.714l-1.59,3.181a10.292,10.292,0,0,0,9.206,14.9H197.681a10.293,10.293,0,0,0,9.206-14.9Zm-6.039,6.56a3.652,3.652,0,0,1-3.167,1.766H52.169a3.723,3.723,0,0,1-3.33-5.388l1.937-3.874a3.284,3.284,0,0,0,.347-1.469V17.3a3.282,3.282,0,0,0-.347-1.469L48.84,11.958A3.723,3.723,0,0,1,52.17,6.57H197.681a3.723,3.723,0,0,1,3.33,5.388l-1.937,3.874a3.275,3.275,0,0,0-.347,1.469V185.49a3.283,3.283,0,0,0,.347,1.469l1.937,3.874A3.652,3.652,0,0,1,200.848,194.455Z" transform="translate(0 0)" fill="#00312a"/>
    <path id="Path_248" data-name="Path 248" d="M209.427,32H83.285a3.285,3.285,0,0,0,0,6.57H209.427a3.285,3.285,0,1,0,0-6.57Z" transform="translate(-21.431 -17.984)" fill="#00312a"/>
    <path id="Path_249" data-name="Path 249" d="M209.427,416H83.285a3.285,3.285,0,0,0,0,6.57H209.427a3.285,3.285,0,1,0,0-6.57Z" transform="translate(-21.431 -233.795)" fill="#00312a"/>
    <path id="Path_250" data-name="Path 250" d="M151.238,156.722c-7.875-7.875-19.188-11.3-29.526-8.932a3.285,3.285,0,0,0-2.469,2.469c-2.366,10.337,1.057,21.65,8.932,29.526a32.724,32.724,0,0,0,22.944,9.669,29.709,29.709,0,0,0,4.74-.383l8.852,8.852v19.2h-7.227a3.285,3.285,0,0,0,0,6.57h21.024a3.285,3.285,0,0,0,0-6.57h-7.227v-5.186l8.852-8.852a29.711,29.711,0,0,0,4.74.383,32.725,32.725,0,0,0,22.943-9.669c7.875-7.875,11.3-19.188,8.932-29.526a3.285,3.285,0,0,0-2.469-2.469c-10.337-2.365-21.651,1.057-29.526,8.932a32.308,32.308,0,0,0-9.283,27.719l-4.19,4.191V169.231l8.868-8.868a23.975,23.975,0,0,0,3.447.257,26.313,26.313,0,0,0,18.451-7.771,25.848,25.848,0,0,0,7.177-23.756,3.285,3.285,0,0,0-2.469-2.469,26.312,26.312,0,0,0-31.271,29.113l-4.2,4.2v-.881a24.148,24.148,0,0,0-7.12-17.189l-.15-.15a26.312,26.312,0,0,0-31.271-29.114,3.285,3.285,0,0,0-2.469,2.469,25.85,25.85,0,0,0,7.177,23.756A26.315,26.315,0,0,0,155.9,146.6a23.977,23.977,0,0,0,3.447-.257l.169.17a17.623,17.623,0,0,1,5.2,12.543v29.574l-4.191-4.191A32.309,32.309,0,0,0,151.238,156.722ZM189.4,175.384a25.766,25.766,0,0,1,21.321-7.549,25.769,25.769,0,0,1-7.549,21.321,26.231,26.231,0,0,1-16.8,7.7l15.5-15.5a3.285,3.285,0,1,0-4.645-4.645L181.7,192.229A26.23,26.23,0,0,1,189.4,175.384Zm-1.755-36.939a19.5,19.5,0,0,1,15.522-5.764A19.5,19.5,0,0,1,197.4,148.2a19.966,19.966,0,0,1-10.667,5.574l8.121-8.121a3.285,3.285,0,1,0-4.645-4.645l-8.148,8.148A19.964,19.964,0,0,1,187.646,138.445Zm-45.551-4.258a19.5,19.5,0,0,1-5.764-15.522,19.5,19.5,0,0,1,15.522,5.764,19.966,19.966,0,0,1,5.582,10.713l-8.148-8.148a3.285,3.285,0,1,0-4.645,4.645l8.121,8.121A19.969,19.969,0,0,1,142.094,134.187Zm-9.274,40.953a25.77,25.77,0,0,1-7.549-21.321,25.765,25.765,0,0,1,21.321,7.549,26.23,26.23,0,0,1,7.7,16.846L138.774,162.7a3.285,3.285,0,0,0-4.645,4.645l15.5,15.5A26.232,26.232,0,0,1,132.821,175.14Z" transform="translate(-43.072 -62.952)" fill="#00312a"/>
  </g>
</svg>
