<svg xmlns="http://www.w3.org/2000/svg" width="186.544" height="206.382" viewBox="0 0 186.544 206.382">
  <g id="spray-bottle-spray-svgrepo-com" transform="translate(-24.607)">
    <g id="Group_39" data-name="Group 39" transform="translate(120.192 125.514)">
      <g id="Group_38" data-name="Group 38">
        <path id="Path_221" data-name="Path 221" d="M288.5,311.379a26.762,26.762,0,0,0-15.256,48.75,3.4,3.4,0,0,0,1.942.608h26.629a3.4,3.4,0,0,0,1.942-.608,26.762,26.762,0,0,0-15.256-48.75Zm12.2,42.553H276.3a19.956,19.956,0,1,1,24.4,0Z" transform="translate(-261.736 -311.379)" fill="#00312a"/>
      </g>
    </g>
    <g id="Group_41" data-name="Group 41" transform="translate(36.289 20.962)">
      <g id="Group_40" data-name="Group 40" transform="translate(0)">
        <path id="Path_222" data-name="Path 222" d="M72.236,55.259,57.718,52.083a3.4,3.4,0,1,0-1.454,6.648l14.518,3.176a3.4,3.4,0,1,0,1.454-6.648Z" transform="translate(-53.587 -52.004)" fill="#00312a"/>
      </g>
    </g>
    <g id="Group_43" data-name="Group 43" transform="translate(24.607 18.406)">
      <g id="Group_42" data-name="Group 42">
        <circle id="Ellipse_13" data-name="Ellipse 13" cx="3.403" cy="3.403" r="3.403" fill="#00312a"/>
      </g>
    </g>
    <g id="Group_45" data-name="Group 45" transform="translate(53.327 7.645)">
      <g id="Group_44" data-name="Group 44">
        <path id="Path_223" data-name="Path 223" d="M107.71,24.969l-6.277-5.218a3.4,3.4,0,0,0-4.351,5.233L103.36,30.2a3.4,3.4,0,0,0,4.351-5.233Z" transform="translate(-95.856 -18.965)" fill="#00312a"/>
      </g>
    </g>
    <g id="Group_47" data-name="Group 47" transform="translate(44.133 0)">
      <g id="Group_46" data-name="Group 46" transform="translate(0)">
        <circle id="Ellipse_14" data-name="Ellipse 14" cx="3.403" cy="3.403" r="3.403" fill="#00312a"/>
      </g>
    </g>
    <g id="Group_49" data-name="Group 49" transform="translate(48.429 37.302)">
      <g id="Group_48" data-name="Group 48">
        <path id="Path_224" data-name="Path 224" d="M97.474,94.435a3.4,3.4,0,0,0-4.558-1.542L85.6,96.511a3.4,3.4,0,1,0,3.016,6.1l7.316-3.618A3.4,3.4,0,0,0,97.474,94.435Z" transform="translate(-83.704 -92.54)" fill="#00312a"/>
      </g>
    </g>
    <g id="Group_51" data-name="Group 51" transform="translate(37.708 46.221)">
      <g id="Group_50" data-name="Group 50">
        <circle id="Ellipse_15" data-name="Ellipse 15" cx="3.403" cy="3.403" r="3.403" fill="#00312a"/>
      </g>
    </g>
    <g id="Group_53" data-name="Group 53" transform="translate(100.15 33.599)">
      <g id="Group_52" data-name="Group 52">
        <circle id="Ellipse_16" data-name="Ellipse 16" cx="3.403" cy="3.403" r="3.403" fill="#00312a"/>
      </g>
    </g>
    <g id="Group_55" data-name="Group 55" transform="translate(143.551 54.719)">
      <g id="Group_54" data-name="Group 54">
        <circle id="Ellipse_17" data-name="Ellipse 17" cx="3.403" cy="3.403" r="3.403" fill="#00312a"/>
      </g>
    </g>
    <g id="Group_57" data-name="Group 57" transform="translate(68.464 18.294)">
      <g id="Group_56" data-name="Group 56">
        <path id="Path_225" data-name="Path 225" d="M257.586,135.122a64.665,64.665,0,0,0-16.877-12.359v-6.51h0a3.4,3.4,0,1,0-6.8,0h0V119.8a64.5,64.5,0,0,0-44.008-.029V103.664a1.136,1.136,0,0,1,1.134-1.134h41.741a1.136,1.136,0,0,1,1.134,1.134,3.4,3.4,0,1,0,6.805,0,7.949,7.949,0,0,0-7.94-7.94h-4.613V84.155a16.258,16.258,0,0,0-32.01-4.026l-30.984-5.994h0L155.3,72.227l-3.37-.652a1.2,1.2,0,0,1-.35-1.189l.538-2.006h0l1.677-6.252,2.43-9.057a1.192,1.192,0,0,1,1.3-.871l87.384,11.231a1.188,1.188,0,0,1,1,1.467L244.1,72.139a1.187,1.187,0,0,1-1.153.9h-4.582a3.4,3.4,0,0,0-2.918,1.652l-2.473,4.122a3.4,3.4,0,1,0,5.836,3.5l1.482-2.471h2.656A7.982,7.982,0,0,0,250.7,73.79l1.81-7.241a7.994,7.994,0,0,0-6.736-9.867L158.391,45.45a8.027,8.027,0,0,0-8.136,4.305l-3.668-.99a10.452,10.452,0,1,0-5.444,20.182l3.629.979a8.046,8.046,0,0,0,3.138,7.144l-1.124,2.539a12.691,12.691,0,0,0,2.306,14.3,15.924,15.924,0,0,1,3.047,17.837l-1.835,3.993a6.237,6.237,0,0,0,1.876,7.657,6.236,6.236,0,0,0,7.882-.089l6.8-5.528a22.942,22.942,0,0,0,6.647-26.575l-3.59-9.219,25.716,4.975v8.762h-4.613a7.949,7.949,0,0,0-7.94,7.94v18.753c0,.1.005.193.009.289a64.229,64.229,0,0,0-9,109.3,7.666,7.666,0,0,0,4.551,1.468h66.5a7.8,7.8,0,0,0,4.632-1.525,64.111,64.111,0,0,0,26.316-51.308A63.756,63.756,0,0,0,257.586,135.122Zm-55.14-50.967h0a9.452,9.452,0,1,1,18.9,0V95.724h-18.9V84.155ZM146.427,63.323l-3.511-.947a3.646,3.646,0,1,1,1.9-7.041l3.5.944Zm16.15,49.176-5.252,4.268,1-2.177a22.688,22.688,0,0,0-4.342-25.412,5.865,5.865,0,0,1-1.052-6.64c.019-.039.037-.079.055-.119L154.5,79l6.023,1.165,1.506.291,5.165,13.261q.018.046.037.092A16.1,16.1,0,0,1,162.577,112.5Zm83.181,113.957a1.039,1.039,0,0,1-.613.212h-66.5a.922.922,0,0,1-.541-.16,57.625,57.625,0,0,1-23.6-46.391,57.526,57.526,0,0,1,33.712-52.31,3.415,3.415,0,0,0,.489-.218l.029-.018a57.236,57.236,0,0,1,23.16-4.846h.416a57.572,57.572,0,0,1,56.976,57.86A57.679,57.679,0,0,1,245.758,226.456Z" transform="translate(-133.409 -45.385)" fill="#00312a"/>
      </g>
    </g>
  </g>
</svg>
