<svg xmlns="http://www.w3.org/2000/svg" width="186.544" height="206.382"><g data-name="Group 39"><g data-name="Group 38"><path data-name="Path 221" d="M122.349 125.514a26.762 26.762 0 00-15.256 48.75 3.4 3.4 0 001.942.608h26.629a3.4 3.4 0 001.942-.608 26.762 26.762 0 00-15.256-48.75zm12.2 42.553h-24.4a19.956 19.956 0 1124.4 0z" fill="#00312a"/></g></g><g data-name="Group 41"><g data-name="Group 40"><path data-name="Path 222" d="M30.331 24.217l-14.518-3.176a3.403 3.403 0 10-1.454 6.648l14.518 3.176a3.403 3.403 0 101.454-6.648z" fill="#00312a"/></g></g><g data-name="Group 43"><g data-name="Group 42"><circle data-name="Ellipse 13" cx="3.403" cy="3.403" r="3.403" fill="#00312a" transform="translate(0 18.406)"/></g></g><g data-name="Group 45"><g data-name="Group 44"><path data-name="Path 223" d="M40.574 13.649l-6.277-5.218a3.403 3.403 0 00-4.351 5.233l6.278 5.216a3.403 3.403 0 004.351-5.233z" fill="#00312a"/></g></g><g data-name="Group 47"><g data-name="Group 46"><circle data-name="Ellipse 14" cx="3.403" cy="3.403" r="3.403" fill="#00312a" transform="translate(19.526)"/></g></g><g data-name="Group 49"><g data-name="Group 48"><path data-name="Path 224" d="M37.592 39.197a3.4 3.4 0 00-4.558-1.542l-7.316 3.618a3.402 3.402 0 103.016 6.1l7.316-3.618a3.4 3.4 0 001.542-4.558z" fill="#00312a"/></g></g><g data-name="Group 51"><g data-name="Group 50"><circle data-name="Ellipse 15" cx="3.403" cy="3.403" r="3.403" fill="#00312a" transform="translate(13.101 46.221)"/></g></g><g data-name="Group 53"><g data-name="Group 52"><circle data-name="Ellipse 16" cx="3.403" cy="3.403" r="3.403" fill="#00312a" transform="translate(75.543 33.599)"/></g></g><g data-name="Group 55"><g data-name="Group 54"><circle data-name="Ellipse 17" cx="3.403" cy="3.403" r="3.403" fill="#00312a" transform="translate(118.944 54.719)"/></g></g><g data-name="Group 57"><g data-name="Group 56"><path data-name="Path 225" d="M168.034 108.031a64.665 64.665 0 00-16.877-12.359v-6.51a3.4 3.4 0 10-6.8 0v3.547a64.5 64.5 0 00-44.008-.029V76.573a1.136 1.136 0 011.134-1.134h41.741a1.136 1.136 0 011.134 1.134 3.402 3.402 0 106.805 0 7.949 7.949 0 00-7.94-7.94h-4.613V57.064a16.258 16.258 0 00-32.01-4.026l-30.984-5.994-9.868-1.908-3.37-.652a1.2 1.2 0 01-.35-1.189l.538-2.006 1.677-6.252 2.43-9.057a1.192 1.192 0 011.3-.871l87.384 11.231a1.188 1.188 0 011 1.467l-1.809 7.241a1.187 1.187 0 01-1.153.9h-4.582a3.4 3.4 0 00-2.918 1.652l-2.473 4.122a3.403 3.403 0 105.836 3.5l1.482-2.471h2.656a7.982 7.982 0 007.752-6.052l1.81-7.241a7.994 7.994 0 00-6.736-9.867L68.839 18.359a8.027 8.027 0 00-8.136 4.305l-3.668-.99a10.452 10.452 0 10-5.444 20.182l3.629.979a8.046 8.046 0 003.138 7.144l-1.124 2.539a12.691 12.691 0 002.306 14.3 15.924 15.924 0 013.047 17.837l-1.835 3.993a6.237 6.237 0 001.876 7.657 6.236 6.236 0 007.882-.089l6.8-5.528a22.942 22.942 0 006.647-26.575l-3.59-9.219 25.716 4.975v8.762h-4.613a7.949 7.949 0 00-7.94 7.94v18.753c0 .1.005.193.009.289a64.229 64.229 0 00-9 109.3 7.666 7.666 0 004.551 1.468h66.5a7.8 7.8 0 004.632-1.525 64.111 64.111 0 0026.316-51.308 63.756 63.756 0 00-18.504-45.517zm-55.14-50.967a9.452 9.452 0 1118.9 0v11.569h-18.9V57.064zM56.875 36.232l-3.511-.947a3.646 3.646 0 111.9-7.041l3.5.944zm16.15 49.176l-5.252 4.268 1-2.177a22.688 22.688 0 00-4.342-25.412 5.865 5.865 0 01-1.052-6.64l.055-.119 1.514-3.419 6.023 1.165 1.506.291 5.165 13.261.037.092a16.1 16.1 0 01-4.654 18.691zm83.181 113.957a1.039 1.039 0 01-.613.212h-66.5a.922.922 0 01-.541-.16 57.625 57.625 0 01-23.6-46.391 57.526 57.526 0 0133.712-52.31 3.415 3.415 0 00.489-.218l.029-.018a57.236 57.236 0 0123.16-4.846h.416a57.572 57.572 0 0156.976 57.86 57.679 57.679 0 01-23.528 45.871z" fill="#00312a"/></g></g></svg>