<svg xmlns="http://www.w3.org/2000/svg" width="221" height="221"><g data-name="Group 59"><g data-name="Group 58" fill="#00312a"><path data-name="Rectangle 752" d="M76.822 20.59l6.808 16.436-6.574 2.723-6.808-16.436z"/><path data-name="Rectangle 753" d="M22.897 70.647l16.436 6.808-2.723 6.574-16.436-6.808z"/><path data-name="Rectangle 754" d="M20.197 144.199l16.436-6.808 2.723 6.574-16.436 6.808z"/><path data-name="Rectangle 755" d="M76.808 200.836l-6.574-2.724 6.81-16.434 6.574 2.724z"/><path data-name="Rectangle 756" d="M143.788 200.792l-6.808-16.436 6.574-2.723 6.808 16.436z"/><path data-name="Rectangle 757" d="M197.69 150.753l-16.436-6.808 2.723-6.574 16.436 6.808z"/><path data-name="Rectangle 758" d="M200.396 77.234l-16.436 6.808-2.723-6.574 16.436-6.808z"/><path data-name="Rectangle 759" d="M143.769 20.574l6.574 2.724-6.81 16.434-6.574-2.724z"/><path data-name="Path 226" d="M110.298 39.542a71.16 71.16 0 1071.16 71.16 71.241 71.241 0 00-71.16-71.16zm0 135.2a64.044 64.044 0 1164.04-64.04 64.117 64.117 0 01-64.04 64.04z"/><path data-name="Rectangle 760" d="M107 0h6v32h-6z"/><path data-name="Rectangle 761" d="M34.823 30.195l22.642 22.642-5.032 5.032-22.642-22.642z"/><path data-name="Rectangle 762" d="M0 108h32v6H0z"/><path data-name="Rectangle 763" d="M34.82 191.215l-5.032-5.032 22.642-22.642 5.032 5.032z"/><path data-name="Rectangle 764" d="M107 189h6v32h-6z"/><path data-name="Rectangle 765" d="M185.762 191.216l-22.642-22.642 5.032-5.032 22.642 22.642z"/><path data-name="Rectangle 766" d="M189 108h32v6h-32z"/><path data-name="Rectangle 767" d="M185.775 30.191l5.032 5.032-22.642 22.642-5.032-5.032z"/></g></g></svg>