<svg xmlns="http://www.w3.org/2000/svg" width="221" height="221" viewBox="0 0 221 221">
  <g id="sun-svgrepo-com" transform="translate(0 0.451)">
    <g id="Group_59" data-name="Group 59" transform="translate(0 -0.347)">
      <g id="Group_58" data-name="Group 58">
        <rect id="Rectangle_752" data-name="Rectangle 752" width="17.79" height="7.116" transform="translate(76.822 20.486) rotate(67.5)" fill="#00312a"/>
        <rect id="Rectangle_753" data-name="Rectangle 753" width="17.79" height="7.116" transform="translate(22.897 70.543) rotate(22.5)" fill="#00312a"/>
        <rect id="Rectangle_754" data-name="Rectangle 754" width="17.79" height="7.116" transform="translate(20.197 144.095) rotate(-22.5)" fill="#00312a"/>
        <rect id="Rectangle_755" data-name="Rectangle 755" width="7.116" height="17.789" transform="translate(76.808 200.732) rotate(-157.492)" fill="#00312a"/>
        <rect id="Rectangle_756" data-name="Rectangle 756" width="17.79" height="7.116" transform="translate(143.788 200.688) rotate(-112.5)" fill="#00312a"/>
        <rect id="Rectangle_757" data-name="Rectangle 757" width="17.79" height="7.116" transform="translate(197.69 150.649) rotate(-157.5)" fill="#00312a"/>
        <rect id="Rectangle_758" data-name="Rectangle 758" width="17.79" height="7.116" transform="translate(200.396 77.13) rotate(157.5)" fill="#00312a"/>
        <rect id="Rectangle_759" data-name="Rectangle 759" width="7.116" height="17.789" transform="translate(143.769 20.47) rotate(22.508)" fill="#00312a"/>
        <path id="Path_226" data-name="Path 226" d="M159.16,88a71.16,71.16,0,1,0,71.16,71.16A71.241,71.241,0,0,0,159.16,88Zm0,135.2A64.044,64.044,0,1,1,223.2,159.16,64.117,64.117,0,0,1,159.16,223.2Z" transform="translate(-48.862 -48.562)" fill="#00312a"/>
        <rect id="Rectangle_760" data-name="Rectangle 760" width="6" height="32" transform="translate(107 -0.104)" fill="#00312a"/>
        <rect id="Rectangle_761" data-name="Rectangle 761" width="32.021" height="7.116" transform="translate(34.823 30.091) rotate(45)" fill="#00312a"/>
        <rect id="Rectangle_762" data-name="Rectangle 762" width="32" height="6" transform="translate(0 107.896)" fill="#00312a"/>
        <rect id="Rectangle_763" data-name="Rectangle 763" width="7.116" height="32.021" transform="translate(34.82 191.111) rotate(-135)" fill="#00312a"/>
        <rect id="Rectangle_764" data-name="Rectangle 764" width="6" height="32" transform="translate(107 188.896)" fill="#00312a"/>
        <rect id="Rectangle_765" data-name="Rectangle 765" width="32.021" height="7.116" transform="translate(185.762 191.112) rotate(-135)" fill="#00312a"/>
        <rect id="Rectangle_766" data-name="Rectangle 766" width="32" height="6" transform="translate(189 107.896)" fill="#00312a"/>
        <rect id="Rectangle_767" data-name="Rectangle 767" width="7.116" height="32.021" transform="translate(185.775 30.087) rotate(45)" fill="#00312a"/>
      </g>
    </g>
  </g>
</svg>
