<svg xmlns="http://www.w3.org/2000/svg" width="117.536" height="220.003"><g data-name="Group 64"><g data-name="Group 63"><path d="M90.933 98.949l-17.774-29.39a3.478 3.478 0 001.129-2.589V49.742a3.294 3.294 0 00-3.184-3.393H46.868a3.294 3.294 0 00-3.184 3.393V66.97a3.477 3.477 0 001.13 2.59L27.045 98.949a3.561 3.561 0 00-.507 1.838v105.43c0 7.6 5.8 13.79 12.94 13.79a12.6 12.6 0 009.757-4.74 12.412 12.412 0 0019.515 0 12.6 12.6 0 009.757 4.74c7.135 0 12.94-6.186 12.94-13.79V100.783a3.57 3.57 0 00-.514-1.834zM50.052 53.135H67.92v10.442H50.052zm1.853 17.228h14.164l19 31.418v21.359H32.901v-21.359zm33.167 92.486H32.901v-32.924h52.171zM78.5 213.214a6.807 6.807 0 01-6.573-7 3.19 3.19 0 10-6.368 0 6.587 6.587 0 11-13.147 0 3.19 3.19 0 10-6.368 0 6.586 6.586 0 11-13.145 0v-36.576H85.07v36.575a6.8 6.8 0 01-6.569 7.004z" fill="#00312a"/><path data-name="Rectangle 768" fill="#ffb95d" d="M0 37.289h117.536v62.168H0z"/></g><g data-name="Group 62"><path data-name="soda-bottle-svgrepo-com" d="M27.349 102.146l17.48 24.794a2.764 2.764 0 00-1.11 2.184v14.537a3.007 3.007 0 003.131 2.863h23.834a3.006 3.006 0 003.131-2.863v-14.537a2.764 2.764 0 00-1.111-2.185l17.48-24.793a2.691 2.691 0 00.5-1.551V11.637c0-6.416-5.708-11.636-12.726-11.636a13.234 13.234 0 00-9.6 4 13.51 13.51 0 00-19.192 0 13.234 13.234 0 00-9.6-4c-7.017 0-12.726 5.22-12.726 11.636v88.958a2.7 2.7 0 00.509 1.551zm40.205 38.652h-17.57v-8.811h17.57v8.811zm-1.822-14.536h-13.93l-18.689-26.51V81.731h51.308v18.021zM33.113 48.224h51.308v27.781H33.113zm6.463-42.5a6.213 6.213 0 016.465 5.91 3.144 3.144 0 006.263 0 6.213 6.213 0 016.465-5.91 6.213 6.213 0 016.465 5.91 3.006 3.006 0 003.131 2.863 3.006 3.006 0 003.131-2.863 6.213 6.213 0 016.465-5.91 6.212 6.212 0 016.463 5.91v30.863h-51.31V11.636a6.211 6.211 0 016.462-5.912z" fill="#00312a"/><path data-name="Rectangle 769" fill="#ffb95d" d="M.971 0h115.593v84.104H.971z"/></g></g></svg>