<svg xmlns="http://www.w3.org/2000/svg" width="117.536" height="220.003" viewBox="0 0 117.536 220.003">
  <g id="Group_64" data-name="Group 64" transform="translate(-8503 -2776.689)">
    <g id="Group_63" data-name="Group 63" transform="translate(8503 2813.978)">
      <path id="soda-bottle-svgrepo-com" d="M156.788,52.6,139.014,23.21a3.478,3.478,0,0,0,1.129-2.589V3.393A3.294,3.294,0,0,0,136.959,0H112.723a3.294,3.294,0,0,0-3.184,3.393V20.621a3.477,3.477,0,0,0,1.13,2.59L92.9,52.6a3.561,3.561,0,0,0-.507,1.838v105.43c0,7.6,5.8,13.79,12.94,13.79a12.6,12.6,0,0,0,9.757-4.74,12.412,12.412,0,0,0,19.515,0,12.6,12.6,0,0,0,9.757,4.74c7.135,0,12.94-6.186,12.94-13.79V54.434A3.57,3.57,0,0,0,156.788,52.6ZM115.907,6.786h17.868V17.228H115.907Zm1.853,17.228h14.164l19,31.418V76.791H98.756V55.432ZM150.927,116.5H98.756V83.576h52.171Zm-6.572,50.365a6.807,6.807,0,0,1-6.573-7,3.19,3.19,0,1,0-6.368,0,6.587,6.587,0,1,1-13.147,0,3.19,3.19,0,1,0-6.368,0,6.586,6.586,0,1,1-13.145,0V123.289h52.171v36.575A6.8,6.8,0,0,1,144.356,166.868Z" transform="translate(-65.855 9.06)" fill="#00312a"/>
      <rect id="Rectangle_768" data-name="Rectangle 768" width="117.536" height="62.168" transform="translate(0 0)" fill="#ffb95d"/>
    </g>
    <g id="Group_62" data-name="Group 62" transform="translate(8503.971 2776.689)">
      <path id="soda-bottle-svgrepo-com-2" data-name="soda-bottle-svgrepo-com" d="M63.335,44.378,45.855,19.584A2.764,2.764,0,0,0,46.965,17.4V2.863A3.007,3.007,0,0,0,43.834,0H20a3.006,3.006,0,0,0-3.131,2.863V17.4a2.764,2.764,0,0,0,1.111,2.185L.5,44.378A2.691,2.691,0,0,0,0,45.929v88.958c0,6.416,5.708,11.636,12.726,11.636a13.234,13.234,0,0,0,9.6-4,13.51,13.51,0,0,0,19.192,0,13.234,13.234,0,0,0,9.6,4c7.017,0,12.726-5.22,12.726-11.636V45.929A2.7,2.7,0,0,0,63.335,44.378ZM23.13,5.726H40.7v8.811H23.13V5.726Zm1.822,14.536h13.93l18.689,26.51V64.793H6.263V46.772ZM57.571,98.3H6.263V70.519H57.571Zm-6.463,42.5a6.213,6.213,0,0,1-6.465-5.91,3.144,3.144,0,0,0-6.263,0,6.213,6.213,0,0,1-6.465,5.91,6.213,6.213,0,0,1-6.465-5.91,3.006,3.006,0,0,0-3.131-2.863,3.006,3.006,0,0,0-3.131,2.863,6.213,6.213,0,0,1-6.465,5.91,6.212,6.212,0,0,1-6.463-5.91V104.027H57.57v30.861A6.211,6.211,0,0,1,51.108,140.8Z" transform="translate(89.713 146.524) rotate(180)" fill="#00312a"/>
      <rect id="Rectangle_769" data-name="Rectangle 769" width="115.593" height="84.104" fill="#ffb95d"/>
    </g>
  </g>
</svg>
